<?xml version="1.0" encoding="UTF-8" standalone="no"?>
<svg
   width="177.17"
   height="177.17"
   shape-rendering="geometricPrecision"
   image-rendering="optimizeQuality"
   fill-rule="evenodd"
   clip-rule="evenodd"
   viewBox="0 0 50 50"
   version="1.1"
   id="svg1972"
   sodipodi:docname="bR.svg"
   inkscape:version="1.1.2 (0a00cf5339, 2022-02-04)"
   xmlns:inkscape="http://www.inkscape.org/namespaces/inkscape"
   xmlns:sodipodi="http://sodipodi.sourceforge.net/DTD/sodipodi-0.dtd"
   xmlns="http://www.w3.org/2000/svg"
   xmlns:svg="http://www.w3.org/2000/svg">
  <sodipodi:namedview
     id="namedview1974"
     pagecolor="#ffffff"
     bordercolor="#666666"
     borderopacity="1.0"
     inkscape:pageshadow="2"
     inkscape:pageopacity="0.0"
     inkscape:pagecheckerboard="0"
     showgrid="true"
     inkscape:zoom="10.437116"
     inkscape:cx="86.039094"
     inkscape:cy="42.300958"
     inkscape:window-width="2486"
     inkscape:window-height="1376"
     inkscape:window-x="0"
     inkscape:window-y="0"
     inkscape:window-maximized="1"
     inkscape:current-layer="svg1972">
    <inkscape:grid
       type="xygrid"
       id="grid2575" />
  </sodipodi:namedview>
  <defs
     id="defs1966">
    <linearGradient
       id="0"
       x1="21.19"
       y1="37.552"
       x2="77.74"
       y2="37.429"
       gradientUnits="userSpaceOnUse">
      <stop
         stop-color="#fff"
         id="stop1961" />
      <stop
         offset="1"
         stop-color="#fff"
         stop-opacity="0"
         id="stop1963" />
    </linearGradient>
  </defs>
  <path
     fill="#1f1a17"
     d="m28.408 9.22h4.216v-3.395h6.796v9.295l-5.5 4.243v11.857l4.22 4.221v5.08h3.789v5.929h-33.859v-5.929h3.794v-5.08l4.246-4.221v-11.857l-5.508-4.243v-9.295h6.774v3.395h4.242v-3.395h6.79z"
     id="path1968" />
  <path
     fill="url(#0)"
     d="m25.01 35.04h-10.27l-1.143 1.067v1.439h22.826v-1.439l-1.143-1.067h-10.27m-11.413 5.08v2.532h22.826v-2.532h-22.826m11.413-27.08h-12.7v1.143l1.812 1.363h21.802l1.761-1.363v-1.143h-12.675m0 4.191h-8.678l1.482 1.168v1.414h14.393v-1.414l1.482-1.168h-8.678m0 13.547h-7.197v1.143l-1.482 1.439h17.357l-1.482-1.439v-1.143h-7.197"
     id="path1970" />
  <g
     id="g1561"
     transform="translate(-0.16284585,1.2575032)">
    <circle
       style="fill:#ff00d0;fill-opacity:1;stroke:none;stroke-width:0.308352"
       id="path6472"
       cx="41.26981"
       cy="7.389164"
       r="4.4119458" />
    <text
       xml:space="preserve"
       style="font-style:normal;font-weight:normal;font-size:7.68039px;line-height:1.25;font-family:sans-serif;letter-spacing:0px;word-spacing:0px;fill:#ffffff;fill-opacity:1;stroke:none;stroke-width:0.192009"
       x="38.809311"
       y="10.257996"
       id="text4784"><tspan
         sodipodi:role="line"
         id="tspan4782"
         style="fill:#ffffff;fill-opacity:1;stroke-width:0.192009"
         x="38.809311"
         y="10.257996">1</tspan></text>
  </g>
</svg>
