<?xml version="1.0" encoding="UTF-8" standalone="no"?>
<svg
   width="177.17"
   height="177.17"
   shape-rendering="geometricPrecision"
   image-rendering="optimizeQuality"
   fill-rule="evenodd"
   clip-rule="evenodd"
   viewBox="0 0 50 50"
   version="1.1"
   id="svg1805"
   sodipodi:docname="bB.svg"
   inkscape:version="1.1.2 (0a00cf5339, 2022-02-04)"
   xmlns:inkscape="http://www.inkscape.org/namespaces/inkscape"
   xmlns:sodipodi="http://sodipodi.sourceforge.net/DTD/sodipodi-0.dtd"
   xmlns="http://www.w3.org/2000/svg"
   xmlns:svg="http://www.w3.org/2000/svg">
  <sodipodi:namedview
     id="namedview1807"
     pagecolor="#ffffff"
     bordercolor="#666666"
     borderopacity="1.0"
     inkscape:pageshadow="2"
     inkscape:pageopacity="0.0"
     inkscape:pagecheckerboard="0"
     showgrid="true"
     inkscape:zoom="6.586894"
     inkscape:cx="88.509091"
     inkscape:cy="88.584999"
     inkscape:window-width="2486"
     inkscape:window-height="1376"
     inkscape:window-x="0"
     inkscape:window-y="0"
     inkscape:window-maximized="1"
     inkscape:current-layer="svg1805">
    <inkscape:grid
       type="xygrid"
       id="grid2655" />
  </sodipodi:namedview>
  <defs
     id="defs1799">
    <linearGradient
       id="0"
       x1="21.09"
       y1="37.1"
       x2="77.67"
       y2="37.469"
       gradientUnits="userSpaceOnUse">
      <stop
         stop-color="#fff"
         id="stop1794" />
      <stop
         offset="1"
         stop-color="#fff"
         stop-opacity="0"
         id="stop1796" />
    </linearGradient>
  </defs>
  <path
     d="m25 42.16c-.229.94-.517 1.592-.847 1.956-.33.364-.762.745-1.312 1.143-.593.415-1.295.762-2.108 1.05-.813.288-1.71.364-2.701.212l-6.968-.965c-.288-.034-.533-.034-.762 0-.22.034-.432.051-.635.051-.347 0-.787.076-1.321.237-.542.152-.957.381-1.253.677l-2.404-3.946c.296-.33.559-.559.787-.694.237-.127.508-.271.821-.415.957-.449 1.981-.72 3.073-.821.466-.034.923-.042 1.363-.025.449.017.914 0 1.397-.051.889.152 1.786.288 2.684.406.906.127 1.812.254 2.718.39.991 0 1.66-.102 2.01-.296.186-.102.474-.288.872-.55.398-.262.796-.652 1.194-1.168-.881-.093-1.77-.262-2.684-.508-.906-.237-1.71-.491-2.404-.754l2.582-6.401c-1.295-.745-2.193-1.338-2.709-1.795-.508-.457-.914-.982-1.211-1.575-.432-.762-.711-1.499-.83-2.21-.127-.711-.178-1.346-.161-1.913.017-.991.245-2.083.703-3.285.457-1.194 1.312-2.269 2.565-3.209 1.041-.796 2.066-1.617 3.057-2.455.991-.847 1.973-1.829 2.946-2.955-1.219-.627-1.829-1.626-1.829-2.997 0-.931.322-1.719.974-2.388.652-.66 1.456-.991 2.396-.991.923 0 1.719.33 2.379.991.66.669.991 1.456.991 2.388 0 1.355-.61 2.354-1.829 2.997.957 1.126 1.93 2.108 2.913 2.955.982.838 2.02 1.659 3.09 2.455 1.236.94 2.083 2.01 2.523 3.209.449 1.202.694 2.295.72 3.285 0 .567-.051 1.202-.169 1.913-.118.711-.381 1.448-.796 2.21-.33.593-.745 1.118-1.253 1.575-.5.457-1.389 1.05-2.667 1.795l2.582 6.401c-.728.263-1.549.517-2.455.754-.914.246-1.787.415-2.633.508.381.517.771.906 1.168 1.168.398.263.694.449.897.55.347.195 1.016.296 2.01.296.889-.136 1.787-.263 2.692-.39.898-.118 1.803-.254 2.718-.406.44.051.889.068 1.346.051.457-.017.923-.008 1.406.025 1.058.102 2.083.373 3.073.821.296.144.567.288.804.415.245.135.508.364.804.694l-2.43 3.946c-.296-.296-.711-.525-1.253-.677-.533-.161-.965-.237-1.295-.237-.22 0-.44-.017-.66-.051-.22-.034-.474-.034-.754 0l-6.951.965c-.991.152-1.913.085-2.76-.195-.855-.279-1.558-.652-2.1-1.118-.542-.449-.982-.83-1.304-1.151-.322-.322-.593-.957-.804-1.897"
     fill="#1f1a17"
     id="path1801" />
  <path
     d="m24.09 23.705v2.108c0 .61.305.914.914.914.61 0 .914-.305.914-.914v-2.134h2.235c.576 0 .872-.296.872-.897 0-.593-.296-.889-.872-.889h-2.235v-2.235c0-.61-.305-.914-.914-.914-.61 0-.914.305-.914.914v2.235h-2.184c-.584 0-.872.296-.872.889 0 .601.288.897.872.897l2.184.025m7.51 13.741l-1.041-2.531c-1.685-.364-3.539-.542-5.554-.542-1.998 0-3.835.178-5.503.542l-1.041 2.506c2.049-.516 4.233-.77 6.545-.77 2.286 0 4.479.262 6.596.796m-2.083-5.114l-.72-1.736v-.669c-1.253-.178-2.523-.271-3.793-.271-1.236 0-2.498.093-3.768.271l-.025.669-.669 1.736c1.405-.246 2.887-.373 4.462-.373 1.592 0 3.09.127 4.513.373m-.864 9.381c-.66-.499-1.329-1.287-1.99-2.362h-.787c0 .813.186 1.6.567 2.362h2.21m-5.114 0c.381-.813.576-1.6.576-2.362h-.796c-.643 1.058-1.312 1.846-2.02 2.362h2.235"
     fill="url(#0)"
     id="path1803" />
  <g
     id="g1561"
     transform="translate(-0.14154951,1.2634977)">
    <circle
       style="fill:#ff00d0;fill-opacity:1;stroke:none;stroke-width:0.308352"
       id="path6472"
       cx="41.26981"
       cy="7.389164"
       r="4.4119458" />
    <text
       xml:space="preserve"
       style="font-style:normal;font-weight:normal;font-size:7.68039px;line-height:1.25;font-family:sans-serif;letter-spacing:0px;word-spacing:0px;fill:#ffffff;fill-opacity:1;stroke:none;stroke-width:0.192009"
       x="38.809311"
       y="10.257996"
       id="text4784"><tspan
         sodipodi:role="line"
         id="tspan4782"
         style="fill:#ffffff;fill-opacity:1;stroke-width:0.192009"
         x="38.809311"
         y="10.257996">1</tspan></text>
  </g>
</svg>
