<?xml version="1.0" encoding="UTF-8" standalone="no"?>
<svg
   width="177.17"
   height="177.17"
   shape-rendering="geometricPrecision"
   image-rendering="optimizeQuality"
   fill-rule="evenodd"
   clip-rule="evenodd"
   viewBox="0 0 50 50"
   version="1.1"
   id="svg2188"
   sodipodi:docname="wR.svg"
   inkscape:version="1.1.2 (0a00cf5339, 2022-02-04)"
   xmlns:inkscape="http://www.inkscape.org/namespaces/inkscape"
   xmlns:sodipodi="http://sodipodi.sourceforge.net/DTD/sodipodi-0.dtd"
   xmlns="http://www.w3.org/2000/svg"
   xmlns:svg="http://www.w3.org/2000/svg">
  <sodipodi:namedview
     id="namedview2190"
     pagecolor="#ffffff"
     bordercolor="#666666"
     borderopacity="1.0"
     inkscape:pageshadow="2"
     inkscape:pageopacity="0.0"
     inkscape:pagecheckerboard="0"
     showgrid="true"
     inkscape:zoom="5.4486007"
     inkscape:cx="90.481948"
     inkscape:cy="46.525707"
     inkscape:window-width="2486"
     inkscape:window-height="1376"
     inkscape:window-x="0"
     inkscape:window-y="0"
     inkscape:window-maximized="1"
     inkscape:current-layer="svg2188">
    <inkscape:grid
       type="xygrid"
       id="grid2510" />
  </sodipodi:namedview>
  <defs
     id="defs2182">
    <linearGradient
       id="0"
       x1="21.376"
       x2="77.64"
       gradientUnits="userSpaceOnUse">
      <stop
         stop-color="#fff"
         id="stop2177" />
      <stop
         offset="1"
         stop-color="#fff"
         stop-opacity="0"
         id="stop2179" />
    </linearGradient>
  </defs>
  <path
     fill="#1f1a17"
     d="m28.408 9.22h4.216v-3.395h6.796v9.295l-5.5 4.243v11.857l4.22 4.221v5.08h3.789v5.929h-33.859v-5.929h3.794v-5.08l4.246-4.221v-11.857l-5.508-4.243v-9.295h6.774v3.395h4.242v-3.395h6.79z"
     id="path2184" />
  <path
     fill="url(#0)"
     d="m33.07 17.678l3.15-2.557h-22.42l3.175 2.557h16.1m7.197 24.528h-30.514v2.557h30.514v-2.557m-3.844-5.05h-22.826v3.37h22.826v-3.37m-4.216-17.788h-14.393v11.862h14.393v-11.862m5.503-5.927v-5.927h-3.395v3.395h-7.645v-3.395h-3.344v3.395h-7.62v-3.395h-3.395v5.927h25.4m-1.913 22l-2.548-2.532h-16.451l-2.599 2.532h21.598"
     id="path2186" />
  <g
     id="g1561"
     transform="translate(-0.17198511,-0.16988524)">
    <circle
       style="fill:#ff00d0;fill-opacity:1;stroke:none;stroke-width:0.308352"
       id="path6472"
       cx="41.26981"
       cy="7.389164"
       r="4.4119458" />
    <text
       xml:space="preserve"
       style="font-style:normal;font-weight:normal;font-size:7.68039px;line-height:1.25;font-family:sans-serif;letter-spacing:0px;word-spacing:0px;fill:#ffffff;fill-opacity:1;stroke:none;stroke-width:0.192009"
       x="38.809311"
       y="10.257996"
       id="text4784"><tspan
         sodipodi:role="line"
         id="tspan4782"
         style="fill:#ffffff;fill-opacity:1;stroke-width:0.192009"
         x="38.809311"
         y="10.257996">1</tspan></text>
  </g>
</svg>
