<?xml version="1.0" encoding="UTF-8" standalone="no"?>
<svg
   width="177.17"
   height="177.17"
   shape-rendering="geometricPrecision"
   image-rendering="optimizeQuality"
   fill-rule="evenodd"
   clip-rule="evenodd"
   viewBox="0 0 50 50"
   version="1.1"
   id="svg1519"
   sodipodi:docname="wJ.svg"
   inkscape:version="1.1.2 (0a00cf5339, 2022-02-04)"
   xmlns:inkscape="http://www.inkscape.org/namespaces/inkscape"
   xmlns:sodipodi="http://sodipodi.sourceforge.net/DTD/sodipodi-0.dtd"
   xmlns:xlink="http://www.w3.org/1999/xlink"
   xmlns="http://www.w3.org/2000/svg"
   xmlns:svg="http://www.w3.org/2000/svg"
   xmlns:rdf="http://www.w3.org/1999/02/22-rdf-syntax-ns#"
   xmlns:cc="http://creativecommons.org/ns#"
   xmlns:dc="http://purl.org/dc/elements/1.1/">
  <metadata
     id="metadata1523">
    <rdf:RDF>
      <cc:Work
         rdf:about="">
        <dc:format>image/svg+xml</dc:format>
        <dc:type
           rdf:resource="http://purl.org/dc/dcmitype/StillImage" />
      </cc:Work>
    </rdf:RDF>
  </metadata>
  <sodipodi:namedview
     pagecolor="#ffffff"
     bordercolor="#666666"
     borderopacity="1"
     objecttolerance="10"
     gridtolerance="10"
     guidetolerance="10"
     inkscape:pageopacity="0"
     inkscape:pageshadow="2"
     inkscape:window-width="2486"
     inkscape:window-height="1376"
     id="namedview1521"
     showgrid="false"
     inkscape:zoom="7.4103809"
     inkscape:cx="32.926783"
     inkscape:cy="81.304863"
     inkscape:window-x="0"
     inkscape:window-y="0"
     inkscape:window-maximized="1"
     inkscape:current-layer="svg1519"
     inkscape:document-rotation="0"
     inkscape:pagecheckerboard="0" />
  <defs
     id="defs1513">
    <linearGradient
       inkscape:collect="always"
       id="linearGradient4974">
      <stop
         style="stop-color:#ffffff;stop-opacity:1"
         offset="0"
         id="stop4970" />
      <stop
         style="stop-color:#1f1a17;stop-opacity:1"
         offset="1"
         id="stop4972" />
    </linearGradient>
    <linearGradient
       id="0"
       x1="21.405"
       x2="77.64"
       gradientUnits="userSpaceOnUse">
      <stop
         stop-color="#fff"
         id="stop1508" />
      <stop
         offset="1"
         stop-color="#fff"
         stop-opacity="0"
         id="stop1510" />
    </linearGradient>
    <linearGradient
       inkscape:collect="always"
       xlink:href="#linearGradient4974"
       id="linearGradient4976"
       x1="-33.872765"
       y1="75.211594"
       x2="12.669442"
       y2="75.211594"
       gradientUnits="userSpaceOnUse"
       gradientTransform="matrix(0.6912555,0,0,0.6912555,48.874461,-22.971562)" />
  </defs>
  <path
     style="fill:url(#linearGradient4976);fill-opacity:1;stroke:#1f1a17;stroke-width:1.69329;stroke-linecap:butt;stroke-linejoin:miter;stroke-miterlimit:4;stroke-dasharray:none;stroke-opacity:1"
     d="m 25.832612,12.345558 c -2.999448,0.01678 -6.461158,0.277351 -8.709271,2.263039 -3.852772,3.403033 -6.456784,9.249331 -5.691884,14.332579 1.064546,7.074594 6.302498,16.259673 13.441078,16.732772 6.808077,0.451195 13.138585,-7.512386 14.812617,-14.126848 1.473875,-5.823601 -1.305821,-12.611957 -5.700205,-16.707812 -2.084592,-1.942977 -5.302699,-2.50967 -8.152335,-2.49373 z"
     id="path5326"
     sodipodi:nodetypes="sssssss" />
  <path
     style="fill:#1f1a17;fill-opacity:1;stroke:#1f1a17;stroke-width:0.97541;stroke-linecap:butt;stroke-linejoin:miter;stroke-miterlimit:4;stroke-dasharray:none;stroke-opacity:1"
     d="m 25.37576,26.569114 c -3.023618,-0.0318 -6.125158,-1.845519 -9.019365,-0.969824 -0.604164,0.182801 -1.208801,0.630948 -1.454736,1.21228 -0.416844,0.985317 -0.209879,2.230884 0.242456,3.200421 0.401115,0.859749 1.126617,1.719926 2.03663,1.988139 5.131711,1.512498 11.327341,1.507405 16.196066,0.436421 1.286076,-0.282901 2.417295,-1.417816 2.957963,-2.618525 0.444653,-0.987476 0.53838,-2.309245 0,-3.248912 -0.270117,-0.471452 -0.876235,-0.70468 -1.406244,-0.824351 -3.117608,-0.703929 -6.356856,0.857964 -9.55277,0.824351 z"
     id="path5328"
     sodipodi:nodetypes="ssssssssss" />
  <path
     style="fill:#1f1a17;fill-opacity:1;stroke:none;stroke-width:0.195083px;stroke-linecap:butt;stroke-linejoin:miter;stroke-opacity:1"
     d="M 12.286229,13.477582 4.1280125,5.0935475 c 0,0 -0.6218375,-0.088342 -1.0345385,0.1584585 C 2.4442593,5.6402456 1.7527833,6.2592096 1.3104751,7.0864392 1.1222387,7.4384894 1.1620605,8.0423557 1.1620605,8.0423557 l 8.2008251,8.3154583 -1.2574124,1.302458 c 0,0 -0.1366163,0.586669 0.085722,0.908643 0.2142229,0.310221 0.8400663,0.360029 0.8400663,0.360029 l 5.8976155,-5.897616 c 0,0 -0.01539,-0.584232 -0.222875,-0.857212 -0.258413,-0.33998 -0.857211,-0.154297 -0.857211,-0.154297 z"
     id="path5330"
     sodipodi:nodetypes="ccsscccsccscc" />
  <path
     style="fill:#ffffff;fill-opacity:1;stroke:none;stroke-width:0.195083px;stroke-linecap:butt;stroke-linejoin:miter;stroke-opacity:1"
     d="m 3.850369,7.9543706 v 1.6244566 l 1.6244546,0.024242 0.018187,-1.6305155 z"
     id="path5332"
     sodipodi:nodetypes="ccccc" />
  <path
     style="fill:#ffffff;fill-opacity:1;stroke:none;stroke-width:0.195083px;stroke-linecap:butt;stroke-linejoin:miter;stroke-opacity:1"
     d="m 6.056719,10.233458 v 1.624457 l 1.6244546,0.02424 7e-7,-1.6487 z"
     id="path5334"
     sodipodi:nodetypes="ccccc" />
  <path
     style="fill:#ffffff;fill-opacity:1;stroke:none;stroke-width:0.195083px;stroke-linecap:butt;stroke-linejoin:miter;stroke-opacity:1"
     d="m 8.3479296,12.561036 v 1.624457 l 1.6244546,0.02424 7e-7,-1.642638 z"
     id="path5336"
     inkscape:transform-center-x="2.841054"
     inkscape:transform-center-y="-3.788072"
     sodipodi:nodetypes="ccccc" />
  <path
     style="fill:none;stroke:#1f1a17;stroke-width:1.41107;stroke-linecap:butt;stroke-linejoin:miter;stroke-miterlimit:4;stroke-dasharray:none;stroke-opacity:1"
     d="m 10.542156,17.240441 1.842667,1.672946"
     id="path5338"
     sodipodi:nodetypes="cc" />
  <path
     style="fill:none;stroke:#1f1a17;stroke-width:1.41107;stroke-linecap:butt;stroke-linejoin:miter;stroke-miterlimit:4;stroke-dasharray:none;stroke-opacity:1"
     d="m 12.990962,14.670405 1.430491,1.285017"
     id="path5342"
     sodipodi:nodetypes="cc" />
  <path
     style="fill:#1f1a17;fill-opacity:1;stroke:none;stroke-width:0.195083;stroke-linecap:butt;stroke-linejoin:miter;stroke-miterlimit:4;stroke-dasharray:none;stroke-opacity:1"
     d="m 39.605818,23.457459 c 0,0 1.508523,-1.284942 2.273795,-1.476841 0.80021,-0.20066 1.798761,-0.331064 2.743078,0.377173 1.444041,1.083031 1.237124,1.621823 2.160174,2.365905 0.631969,0.509439 2.057308,1.302961 2.057308,1.302961 0.08709,0.880906 -4.276367,0.972214 -4.49179,0.308597 0.37251,0.241968 0.589129,1.336005 0.754347,1.302961 -0.06667,0 -0.533254,2.6745 -0.44575,2.811655 0.08248,0.129272 0.822923,2.571634 0.822923,2.571634 -1.031747,-0.25333 -2.048724,-0.388508 -3.257405,-2.057309 -0.171953,-2.423882 -0.546167,-4.160093 -1.714423,-4.21748 z"
     id="path5344"
     sodipodi:nodetypes="cssscccscccc" />
</svg>
