<?xml version="1.0" encoding="UTF-8" standalone="no"?>
<svg
   width="55"
   height="60"
   version="1.1"
   id="svg1717"
   sodipodi:docname="wS.svg"
   inkscape:version="1.1.2 (0a00cf5339, 2022-02-04)"
   inkscape:export-filename="D:\Pictures\Chess Variants\Shogi\pieces\Plastic\0UM.png"
   inkscape:export-xdpi="365.56299"
   inkscape:export-ydpi="365.56299"
   xmlns:inkscape="http://www.inkscape.org/namespaces/inkscape"
   xmlns:sodipodi="http://sodipodi.sourceforge.net/DTD/sodipodi-0.dtd"
   xmlns:xlink="http://www.w3.org/1999/xlink"
   xmlns="http://www.w3.org/2000/svg"
   xmlns:svg="http://www.w3.org/2000/svg"
   xmlns:rdf="http://www.w3.org/1999/02/22-rdf-syntax-ns#"
   xmlns:cc="http://creativecommons.org/ns#"
   xmlns:dc="http://purl.org/dc/elements/1.1/">
  <metadata
     id="metadata1723">
    <rdf:RDF>
      <cc:Work
         rdf:about="">
        <dc:format>image/svg+xml</dc:format>
        <dc:type
           rdf:resource="http://purl.org/dc/dcmitype/StillImage" />
      </cc:Work>
    </rdf:RDF>
  </metadata>
  <defs
     id="defs1721">
    <linearGradient
       inkscape:collect="always"
       id="linearGradient5922">
      <stop
         style="stop-color:#ffffff;stop-opacity:1"
         offset="0"
         id="stop5918" />
      <stop
         style="stop-color:#a2a2a2;stop-opacity:1"
         offset="1"
         id="stop5920" />
    </linearGradient>
    <filter
       id="drop-shadow-1"
       x="-0.12019833"
       y="-0.099692244"
       width="1.2904793"
       height="1.2409229">
      <feGaussianBlur
         in="SourceAlpha"
         result="blur"
         stdDeviation="2"
         id="feGaussianBlur5056-0" />
      <feOffset
         result="offsetBlur"
         dx="2"
         dy="2"
         id="feOffset5058-7" />
      <feBlend
         in="SourceGraphic"
         in2="offsetBlur"
         mode="normal"
         id="feBlend5060-4" />
    </filter>
    <linearGradient
       inkscape:collect="always"
       xlink:href="#linearGradient5922"
       id="linearGradient5916"
       x1="26.712296"
       y1="7.8572731"
       x2="44.338837"
       y2="8.2843122"
       gradientUnits="userSpaceOnUse"
       gradientTransform="matrix(0.82349992,0,0,0.82349992,4.126532,7.7673744)" />
    <linearGradient
       inkscape:collect="always"
       xlink:href="#linearGradient5922"
       id="linearGradient5924"
       x1="29.44038"
       y1="7.5648007"
       x2="36.989044"
       y2="7.3949785"
       gradientUnits="userSpaceOnUse"
       gradientTransform="matrix(0.82349992,0,0,0.82349992,4.126532,7.7673744)" />
    <linearGradient
       inkscape:collect="always"
       xlink:href="#linearGradient5922"
       id="linearGradient5926"
       gradientUnits="userSpaceOnUse"
       x1="-97.842094"
       y1="50.522758"
       x2="-124.05531"
       y2="50.466354"
       gradientTransform="matrix(0.82349992,0,0,0.82349992,-15.76777,20.595487)" />
    <linearGradient
       inkscape:collect="always"
       xlink:href="#linearGradient5922"
       id="linearGradient6691"
       gradientUnits="userSpaceOnUse"
       x1="-97.842094"
       y1="50.522758"
       x2="-124.05531"
       y2="50.466354"
       gradientTransform="matrix(0.82349992,0,0,0.82349992,-15.76777,20.595487)" />
    <linearGradient
       inkscape:collect="always"
       xlink:href="#linearGradient5922"
       id="linearGradient6693"
       gradientUnits="userSpaceOnUse"
       x1="-97.842094"
       y1="50.522758"
       x2="-124.05531"
       y2="50.466354"
       gradientTransform="matrix(0.82349992,0,0,0.82349992,-15.76777,20.595487)" />
  </defs>
  <sodipodi:namedview
     pagecolor="#ffffff"
     bordercolor="#666666"
     borderopacity="1"
     objecttolerance="10"
     gridtolerance="10"
     guidetolerance="10"
     inkscape:pageopacity="0"
     inkscape:pageshadow="2"
     inkscape:window-width="2486"
     inkscape:window-height="1376"
     id="namedview1719"
     showgrid="false"
     inkscape:zoom="9.9360107"
     inkscape:cx="8.9573173"
     inkscape:cy="36.181523"
     inkscape:window-x="0"
     inkscape:window-y="0"
     inkscape:window-maximized="1"
     inkscape:current-layer="svg1717"
     inkscape:snap-nodes="false"
     inkscape:document-rotation="0"
     inkscape:pagecheckerboard="0" />
  <!--
Created by Hari Seldon and modified by orangain, licensed under Creative Commons Attribution-Share Alike 3.0 Unported.
See: https://creativecommons.org/licenses/by-sa/3.0/deed.en

Original file is available at: https://commons.wikimedia.org/wiki/File:Shogi_gyokusho(svg).svg
-->
  <filter
     id="drop-shadow">
    <feGaussianBlur
       in="SourceAlpha"
       result="blur"
       stdDeviation="2"
       id="feGaussianBlur1692" />
    <feOffset
       result="offsetBlur"
       dx="2"
       dy="2"
       id="feOffset1694" />
    <feBlend
       in="SourceGraphic"
       in2="offsetBlur"
       mode="normal"
       id="feBlend1696" />
  </filter>
  <g
     id="g6689"
     transform="matrix(1.2143292,0,0,1.2143292,-5.0109684,-9.4321495)">
    <g
       style="display:inline;fill:url(#linearGradient5926);fill-opacity:1;stroke:#000000;stroke-width:2.23988;stroke-miterlimit:4;stroke-dasharray:none;stroke-opacity:1"
       transform="matrix(-0.50621414,0,0,0.50621414,-21.843257,-15.06148)"
       id="g5997">
      <path
         style="fill:url(#linearGradient6691);fill-opacity:1;stroke:#000000;stroke-width:2.23988;stroke-linecap:butt;stroke-linejoin:round;stroke-miterlimit:4;stroke-dasharray:none;stroke-opacity:1"
         d="m -99.869869,72.613761 c -7.779571,0.585533 -4.396091,1.588995 -10.238971,4.007947 l -7.9946,4.071814 0.92547,6.001393 c -0.77162,7.488641 -4.08646,12.458035 -8.18707,18.444855 l -1.90602,1.3852 c 3.13117,1.46188 4.20218,2.34296 4.36004,3.24198 1.0049,1.73091 2.90632,1.96241 4.68934,2.61358 l -1.40356,-6.87865 8.35729,-9.826813 c -1.06856,5.909803 2.17058,6.922683 1.10588,12.802873 l -2.84591,6.8277 2.46723,0.7131 3.25042,-4.84479 c 0.26499,-5.69802 1.45183,-10.40982 2.60785,-16.125345 4.941082,0.959034 6.067067,4.202936 11.109985,-2.96622 -2.428058,5.368292 0.319467,10.071535 -1.610087,15.629045 -9.266908,7.89492 -9.809298,13.85164 -12.776998,19.93646 16.922061,5.51965 34.88504,-3.64485 47.788999,1.18747 -1.394815,-1.91918 -5.584929,-8.81125 -13.797994,-12.36746 4.417856,-1.13734 3.962697,-3.66213 12.547802,-1.40576 -1.981522,-3.0243 -11.977189,-14.32996 -14.77873,-11.53173 4.379556,-0.312 7.876955,-3.04993 13.17269,-0.84243 -6.098267,-7.596403 -10.395058,-6.791101 -15.393664,-8.883915 l 6.317277,-0.304444 6.395909,-0.308233 c -3.868141,-6.756051 -11.320552,-7.972724 -18.227333,-10.032692 3.53372,-1.207193 8.843849,-0.848945 13.9911,-0.330365 -6.280517,-5.071055 -14.011653,-7.9172 -22.741995,-10.130099"
         id="path5993"
         inkscape:connector-curvature="0"
         sodipodi:nodetypes="ccccccccccccccccccccccccccccc" />
      <path
         style="fill:url(#linearGradient6693);fill-opacity:1;stroke:#000000;stroke-width:2.23988;stroke-linecap:butt;stroke-linejoin:miter;stroke-miterlimit:4;stroke-dasharray:none;stroke-opacity:1"
         d="m -109.93466,84.098408 c -0.65031,1.030186 -0.2801,1.823044 -2.0241,4.697906 0.79591,0.469213 1.45281,0.05645 2.31512,-0.895721 1.3323,-1.578995 1.35473,-1.792373 -0.29099,-3.802185 z"
         id="path5995"
         inkscape:connector-curvature="0"
         sodipodi:nodetypes="ccccc" />
    </g>
    <path
       sodipodi:nodetypes="ccccsccccc"
       inkscape:connector-curvature="0"
       id="path5999"
       d="m 37.988438,25.762131 c 0.203246,-1.733369 -4.801677,-4.61252 -5.137684,-6.853386 l 1.754467,-2.522046 -3.179971,1.041715 c -1.928449,-0.318234 -7.622834,-2.91031 -9.795513,-5.054277 -0.354683,-0.34999 -0.769553,-1.383564 -0.786115,-1.744282 -0.958141,1.403538 -1.151176,1.353194 -1.681464,2.671395 1.54894,1.733852 5.566862,3.320328 7.493135,4.223115 3.36362,2.153828 5.009398,5.255243 7.88246,7.838125 z"
       style="display:inline;fill:url(#linearGradient5924);fill-opacity:1;stroke:#000000;stroke-width:1.13386;stroke-linecap:butt;stroke-linejoin:miter;stroke-miterlimit:4;stroke-dasharray:none;stroke-opacity:1" />
    <path
       sodipodi:nodetypes="cscssc"
       inkscape:connector-curvature="0"
       id="path6001"
       d="m 31.699385,25.323514 c -1.297849,-0.914445 -2.677176,-4.003886 -3.917207,-5.342035 -1.23296,-1.330518 -1.759537,-0.499953 -3.648931,-1.456524 0.113532,-0.04869 1.105314,2.006549 1.232452,3.793859 0.07255,1.020258 -0.691015,2.101053 -0.664206,2.281027 0.313575,2.105456 4.117838,2.26999 4.859636,3.026411"
       style="display:inline;fill:url(#linearGradient5916);fill-opacity:1;stroke:#000000;stroke-width:1.13386;stroke-linecap:butt;stroke-linejoin:miter;stroke-miterlimit:4;stroke-dasharray:none;stroke-opacity:1" />
    <path
       sodipodi:nodetypes="ccc"
       inkscape:connector-curvature="0"
       id="path6003"
       d="m 38.017887,41.379017 -1.709719,-0.891681 1.74458,-0.743263"
       style="fill:#ffffff;fill-opacity:1;stroke:#000000;stroke-width:1.13386;stroke-linecap:butt;stroke-linejoin:miter;stroke-miterlimit:4;stroke-dasharray:none;stroke-opacity:1" />
    <path
       sodipodi:nodetypes="csc"
       inkscape:connector-curvature="0"
       id="path6005"
       d="m 24.997919,24.824132 c -8.738886,2.262464 -5.372169,19.125898 -8.101505,24.600142 -0.13112,0.262986 -0.140849,0.304181 -0.197702,0.688768"
       style="fill:none;fill-opacity:1;stroke:#000000;stroke-width:1.13386;stroke-linecap:butt;stroke-linejoin:miter;stroke-miterlimit:4;stroke-dasharray:none;stroke-opacity:1" />
    <path
       style="fill:#ffffff;fill-opacity:1;stroke:#000000;stroke-width:1.13386;stroke-linecap:butt;stroke-linejoin:miter;stroke-miterlimit:4;stroke-dasharray:none;stroke-opacity:1"
       d="M 27.03074,34.270023 C 26.539665,33.551121 25.79914,31.739389 25.308073,29.63145"
       id="path6007"
       inkscape:connector-curvature="0"
       sodipodi:nodetypes="cc" />
    <path
       style="fill:#ffffff;fill-opacity:1;stroke:#000000;stroke-width:1.13386;stroke-linecap:butt;stroke-linejoin:miter;stroke-miterlimit:4;stroke-dasharray:none;stroke-opacity:1"
       d="M 31.936361,25.412317 C 30.387886,23.922678 29.800526,22.753913 29.818755,21.091153"
       id="path6009"
       inkscape:connector-curvature="0"
       sodipodi:nodetypes="cc" />
    <path
       style="fill:#ffffff;fill-opacity:1;stroke:#000000;stroke-width:1.13386;stroke-linecap:butt;stroke-linejoin:miter;stroke-miterlimit:4;stroke-dasharray:none;stroke-opacity:1"
       d="m 34.667347,43.078657 1.709719,-0.891682 -1.744581,-0.743262"
       id="path6013"
       inkscape:connector-curvature="0"
       sodipodi:nodetypes="ccc" />
  </g>
</svg>
